<?xml version="1.0" standalone="no"?>
<!DOCTYPE svg PUBLIC "-//W3C//DTD SVG 20010904//EN"
 "http://www.w3.org/TR/2001/REC-SVG-20010904/DTD/svg10.dtd">
<svg version="1.0" xmlns="http://www.w3.org/2000/svg"
 width="1040.000000pt" height="1040.000000pt" viewBox="0 0 1040.000000 1040.000000"
 preserveAspectRatio="xMidYMid meet">
<metadata>
Created by potrace 1.14, written by Peter Selinger 2001-2017
</metadata>
<g transform="translate(0.000000,1040.000000) scale(0.100000,-0.100000)"
fill="#000000" stroke="none">
<path d="M4635 10390 c-62 -9 -107 -31 -134 -66 -33 -42 -28 -117 18 -280 70
-247 330 -1109 396 -1314 18 -58 50 -158 70 -222 l36 -118 71 -69 71 -69 63
55 c35 31 70 70 78 87 17 35 146 454 341 1101 70 231 147 485 172 565 65 209
57 276 -37 319 -31 14 -101 16 -565 17 -291 1 -553 -1 -580 -6z"/>
<path d="M4032 9740 c-1102 -237 -2161 -982 -2839 -2000 -429 -643 -686 -1366
-768 -2160 -52 -503 -16 -1166 90 -1665 239 -1120 882 -2126 1800 -2816 660
-497 1437 -811 2275 -919 797 -102 1615 5 2380 312 1129 454 2049 1337 2553
2449 212 468 347 963 402 1479 36 333 29 954 -16 1312 -94 765 -378 1495 -827
2128 -670 945 -1726 1662 -2752 1870 -171 35 -207 37 -214 13 -59 -194 -116
-390 -116 -398 0 -5 64 -25 143 -44 693 -164 1375 -532 1919 -1038 386 -358
688 -765 927 -1248 145 -292 233 -523 307 -801 223 -845 197 -1680 -76 -2477
-345 -1008 -1043 -1840 -1977 -2358 -474 -262 -996 -431 -1563 -505 -190 -25
-681 -30 -890 -10 -1214 116 -2299 721 -3032 1693 -275 364 -511 819 -652
1261 -82 256 -159 613 -188 877 -17 160 -17 710 0 870 54 483 193 964 407
1400 476 973 1211 1671 2203 2094 173 73 503 187 676 231 70 19 130 38 132 44
2 6 -27 106 -65 221 -55 170 -72 210 -87 212 -11 1 -79 -11 -152 -27z"/>
<path d="M5893 8767 c-71 -75 -82 -97 -148 -301 -36 -110 -84 -238 -105 -283
-155 -320 -578 -393 -829 -142 -78 77 -109 141 -195 396 -40 121 -81 233 -90
250 -14 28 -101 113 -115 113 -3 0 -17 -9 -31 -20 l-25 -19 49 -188 c66 -254
147 -563 249 -953 81 -305 117 -443 296 -1115 40 -148 77 -282 83 -298 13 -33
70 -85 103 -93 47 -12 95 5 140 51 35 34 49 59 70 126 28 89 183 669 310 1159
91 350 331 1267 340 1300 3 9 -9 24 -29 37 l-33 21 -40 -41z"/>
<path d="M7000 7968 c-118 -200 -255 -433 -306 -518 -249 -422 -834 -1411
-858 -1452 l-27 -46 66 -109 c37 -59 69 -110 71 -112 6 -6 25 5 494 282 223
132 468 276 545 322 206 121 820 484 1133 668 149 89 272 164 272 168 0 8
-1156 1152 -1168 1157 -4 1 -104 -161 -222 -360z"/>
<path d="M3063 8217 c-267 -180 -607 -492 -797 -732 -116 -147 -250 -345 -240
-355 7 -6 643 -384 1204 -715 58 -34 294 -174 525 -312 662 -393 635 -378 649
-362 76 84 157 182 154 188 -16 41 -1385 2351 -1392 2351 -6 0 -52 -28 -103
-63z"/>
<path d="M1481 5902 c-13 -64 -37 -208 -53 -322 -20 -149 -17 -691 5 -850 18
-129 74 -421 82 -429 5 -5 475 114 865 219 583 157 983 263 1362 361 319 82
356 98 394 171 28 54 11 201 -24 212 -9 3 -156 41 -327 86 -170 44 -422 109
-560 145 -137 36 -396 104 -575 150 -343 90 -701 183 -987 258 l-172 45 -10
-46z"/>
<path d="M8690 5909 c-58 -16 -233 -63 -390 -104 -1076 -283 -1964 -521 -2002
-536 -35 -14 -95 -81 -104 -113 -13 -53 43 -148 106 -181 15 -8 80 -28 146
-45 65 -17 225 -60 354 -95 254 -69 712 -189 1180 -310 318 -83 814 -213 842
-221 19 -6 25 11 59 169 88 402 84 934 -10 1300 -23 86 -56 168 -68 166 -4 0
-55 -14 -113 -30z"/>
<path d="M5012 5731 c-217 -62 -393 -242 -447 -456 -19 -77 -19 -224 0 -300
74 -285 320 -478 610 -478 245 0 462 138 565 358 48 101 64 169 64 270 0 101
-16 168 -65 274 -73 158 -237 291 -414 336 -81 20 -233 18 -313 -4z"/>
<path d="M5872 4422 l-93 -87 169 -285 c93 -157 290 -490 437 -740 148 -250
385 -653 528 -895 143 -242 263 -444 267 -449 10 -10 144 69 276 165 283 204
541 462 708 707 58 86 146 251 146 274 0 7 -278 177 -618 378 -339 200 -750
443 -912 539 -162 96 -394 233 -515 304 -121 72 -238 141 -260 153 l-40 23
-93 -87z"/>
<path d="M4155 4362 c-121 -70 -616 -359 -1100 -641 -484 -283 -917 -536 -962
-563 l-82 -49 59 -92 c253 -395 597 -748 977 -1004 98 -66 115 -75 127 -62 7
7 83 133 168 279 86 146 275 468 420 715 670 1138 781 1329 785 1345 5 17
-137 192 -160 198 -7 1 -111 -55 -232 -126z"/>
<path d="M5135 4091 c-22 -10 -55 -35 -74 -54 -31 -33 -40 -58 -92 -254 -80
-298 -282 -1059 -386 -1453 -47 -179 -118 -451 -159 -604 -40 -154 -72 -282
-69 -284 9 -9 163 -43 301 -67 339 -58 676 -56 1019 6 134 25 307 67 319 79 5
5 -16 99 -47 217 -31 114 -97 363 -147 553 -145 550 -301 1130 -427 1590 -47
173 -70 220 -125 256 -49 33 -69 35 -113 15z"/>
</g>
</svg>
