<svg width="60" height="65" viewBox="0 0 60 65" fill="none" xmlns="http://www.w3.org/2000/svg">
<path d="M23.7536 3.9219L24.6475 6.70322C16.2415 8.76438 9.85938 13.3958 5.94813 21.1189C3.10265 26.6897 2.36193 33.0999 3.86207 39.1728C5.28528 45.1594 8.73115 50.4714 13.6176 54.2115C18.504 57.9515 24.5316 59.8903 30.6822 59.7006C36.8327 59.5109 42.7294 57.2042 47.376 53.17C52.0226 49.1359 55.1344 43.6217 56.1859 37.5587C57.3027 30.6654 55.721 23.6067 51.7693 17.8491C47.8176 12.0915 41.7998 8.07763 34.9659 6.64123L35.773 3.95919C45.8429 5.28777 59.762 15.8295 59.675 33.1756C59.9714 41.0791 57.116 48.7765 51.737 54.5746C46.358 60.3728 38.8959 63.7967 30.9924 64.0931C23.089 64.3895 15.3916 61.5341 9.5934 56.1551C3.79525 50.7761 0.371457 43.314 0.0750774 35.4105C-1.12934 17.5305 12.3923 5.74715 23.7536 3.9219ZM30.8312 40.1911C30.7548 39.9848 30.6305 39.7995 30.4686 39.6506C30.3067 39.5016 30.1118 39.3932 29.8999 39.3342C29.6831 39.3685 29.4779 39.4554 29.3026 39.5875C29.1272 39.7196 28.9869 39.8927 28.8941 40.0916C27.4662 45.3563 26.1003 50.6334 24.6848 55.9974C28.0739 56.9375 31.6599 56.8986 35.0278 55.8856C33.6123 50.5216 32.2467 45.3564 30.8312 40.1911ZM52.5726 27.8737C47.37 29.2519 42.1302 30.6177 36.9276 32.0332C36.6048 32.1201 36.1578 32.654 36.1951 32.9272C36.2311 33.1498 36.3196 33.3607 36.4535 33.5421C36.5874 33.7235 36.7628 33.8703 36.9649 33.9703C42.1799 35.3858 47.4073 36.7268 52.734 38.1174C53.7149 35.0505 53.6156 30.0963 52.5726 27.8737ZM10.0704 45.555C11.8449 48.5603 14.3255 51.0877 17.297 52.9181L25.9886 38.1298L24.9208 36.8882L10.0704 45.555ZM22.1766 34.1564C23.3438 33.8708 23.7039 33.3742 23.319 32.1325L6.81724 27.824C6.07164 31.2331 6.12262 34.7685 6.96623 38.1547C12.1316 36.8634 17.0982 35.4354 22.1766 34.1689V34.1564ZM33.6125 37.8814L42.4034 52.7814C45.6318 50.9437 48.5372 47.9389 49.4809 45.5053L34.792 36.8136L33.6125 37.8814ZM42.6146 12.8991L33.7986 27.7991L34.6803 29.227L50.0024 20.1877L42.6146 12.8991ZM24.9455 29.2146L26.0135 27.973L17.3218 13.1971C14.3989 15.0208 11.9314 17.4884 10.1077 20.4113L24.9455 29.2146ZM27.0316 0.0230516C25.6037 0.0230516 25.2312 0.494963 25.6161 1.81113C26.6467 5.33746 27.7144 8.86379 28.8195 12.3653C28.9561 12.775 29.4404 13.073 29.7632 13.4331C30.086 13.0979 30.5951 12.8123 30.7193 12.415C31.8492 8.81417 32.9171 5.17595 34.0222 1.5627C34.3574 0.470039 33.9476 0.010635 32.8549 0.0230516H29.9495C28.9686 0.010635 28.0001 -0.0142105 27.0316 0.0106228V0.0230516ZM24.7097 10.2297C26.1003 15.544 27.491 20.8707 28.9314 26.185C29.0153 26.3643 29.1438 26.5189 29.3047 26.6341C29.4656 26.7494 29.6535 26.8214 29.8502 26.8431C30.0652 26.7852 30.2641 26.679 30.4319 26.5327C30.5997 26.3864 30.7321 26.2038 30.8187 25.9987C31.4768 23.7513 32.0604 21.4667 32.6439 19.1944L34.9907 10.2172L34.5809 9.94395C34.2892 10.1936 34.038 10.4868 33.8359 10.8132C33.4758 11.7072 33.2647 12.6632 32.8922 13.5572C32.6659 14.1842 32.2518 14.7261 31.7063 15.1092C31.1608 15.4922 30.5105 15.6979 29.844 15.6979C29.1774 15.6979 28.5271 15.4922 27.9816 15.1092C27.4361 14.7261 27.022 14.1842 26.7957 13.5572C26.4232 12.6632 26.2122 11.7072 25.8521 10.8132C25.7279 10.478 25.3553 10.2544 25.0945 9.98123L24.7097 10.2297ZM33.7862 33.0762C33.8059 32.2948 33.5926 31.5253 33.1734 30.8657C32.7541 30.206 32.1479 29.6861 31.4321 29.3723C30.7163 29.0584 29.9233 28.9647 29.154 29.1032C28.3848 29.2417 27.6742 29.606 27.1128 30.1498C26.5514 30.6936 26.1647 31.3923 26.0018 32.1568C25.8389 32.9212 25.9073 33.7167 26.1983 34.4421C26.4892 35.1676 26.9895 35.79 27.6354 36.2301C28.2814 36.6701 29.0438 36.9079 29.8253 36.913C30.8568 36.9134 31.8477 36.5114 32.5874 35.7926C33.3271 35.0738 33.7571 34.0948 33.7862 33.0638V33.0762Z" fill="#E03D22"/>
</svg>
