<svg width="231" height="65" viewBox="0 0 231 65" fill="none" xmlns="http://www.w3.org/2000/svg">
<path d="M82.5215 32.3933V0.54459H95.0873C98.4324 0.447418 101.685 1.6488 104.164 3.89703C105.283 4.93846 106.172 6.20189 106.775 7.60656C107.378 9.01124 107.681 10.5263 107.665 12.0549C107.688 13.5771 107.388 15.0869 106.784 16.4845C106.181 17.8821 105.288 19.1359 104.164 20.163C101.615 22.4196 98.3038 23.6225 94.901 23.5278H90.3565V32.3933H82.5215ZM95.0873 8.26771H90.5923V15.755H95.0873C97.372 15.755 99.5944 14.1781 99.5944 12.03C99.5944 9.88192 97.3596 8.305 95.0873 8.305V8.26771Z" fill="#E03D22"/>
<path d="M110.434 32.3933V0.544556H118.219V32.3933H110.434Z" fill="#E03D22"/>
<path d="M123.881 0.457764L142.506 17.2203V0.457764H150.54V32.3934H148.789L130.164 15.6682V32.3934H122.143V0.457764H123.881Z" fill="#E03D22"/>
<path d="M153.21 15.3579H170.196V22.3361H153.21V15.3579Z" fill="#E03D22"/>
<path d="M193.576 19.4801V0.606812H201.399V19.7532C201.414 21.4808 201.068 23.1925 200.384 24.779C199.7 26.3654 198.692 27.7917 197.425 28.9664C194.553 31.4113 190.904 32.754 187.132 32.754C183.36 32.754 179.711 31.4113 176.839 28.9664C175.572 27.7917 174.564 26.3654 173.88 24.779C173.196 23.1925 172.85 21.4808 172.865 19.7532V0.606812H180.688V19.4801C180.692 20.2202 180.865 20.9495 181.194 21.6124C181.524 22.2752 182 22.8539 182.587 23.3043C183.857 24.3713 185.474 24.9366 187.132 24.8937C190.36 24.8316 193.576 22.5346 193.576 19.4801Z" fill="#E03D22"/>
<path d="M205.347 32.3935V0.544732H217.913C221.258 0.446258 224.511 1.64781 226.989 3.89717C228.11 4.93799 229.001 6.20103 229.606 7.60564C230.211 9.01026 230.517 10.5257 230.503 12.055C230.524 13.578 230.221 15.0881 229.616 16.4857C229.01 17.8833 228.115 19.1367 226.989 20.1631C224.442 22.4219 221.13 23.6252 217.726 23.528H213.132V32.3935H205.347ZM217.913 8.26786H213.418V15.7551H217.913C220.197 15.7551 222.42 14.1782 222.42 12.0301C222.42 9.88206 220.185 8.30514 217.913 8.30514V8.26786Z" fill="#E03D22"/>
<path d="M88.7795 54.9172C88.7795 55.8112 89.8598 56.6927 91.0145 56.8542H91.3374C92.579 56.8542 93.92 55.9229 93.92 54.9792C93.92 53.3775 91.2753 53.1167 89.1272 52.4959C85.7374 51.4902 82.9188 49.0442 82.9188 45.6172C82.9188 41.4576 86.5072 38.1672 91.3869 38.1672C93.378 38.0809 95.3316 38.7286 96.8767 39.9875C98.4217 41.2465 99.4506 43.0288 99.7682 44.9963V45.4805L93.5599 46.7221C93.5599 45.2197 92.9515 44.1395 91.4118 44.1395C90.8789 44.1082 90.3547 44.2847 89.9494 44.6321C89.5442 44.9795 89.2894 45.4706 89.2389 46.002C89.2389 47.6162 91.7223 48.1253 93.7834 48.6592C97.2601 49.5284 100.215 51.8876 100.215 55.4015C100.215 59.5859 96.2543 62.9259 91.3994 62.9259C89.3644 63.0176 87.3635 62.3803 85.7565 61.1284C84.1496 59.8766 83.0422 58.0923 82.6333 56.0968V55.6125L88.8416 54.3708L88.7795 54.9172Z" fill="#24BB9D"/>
<path d="M114.718 38.2541H120.678V56.7301H131.53V62.6528H114.718V38.2541Z" fill="#24BB9D"/>
<path d="M156.612 38.105C158.309 38.0746 159.995 38.3816 161.572 39.0083C163.149 39.635 164.587 40.5687 165.8 41.7554C166.999 42.8752 167.955 44.2296 168.609 45.7344C169.262 47.2392 169.599 48.8624 169.599 50.503C169.599 52.1436 169.262 53.7667 168.609 55.2715C167.955 56.7763 166.999 58.1307 165.8 59.2506C163.302 61.5649 160.023 62.8507 156.618 62.8507C153.213 62.8507 149.933 61.5649 147.436 59.2506C146.238 58.1297 145.284 56.775 144.631 55.2703C143.979 53.7656 143.642 52.143 143.642 50.503C143.642 48.8629 143.979 47.2403 144.631 45.7356C145.284 44.231 146.238 42.8762 147.436 41.7554C148.649 40.5713 150.084 39.6393 151.659 39.0127C153.234 38.3862 154.917 38.0776 156.612 38.105ZM156.612 44.1146C155.743 44.0865 154.879 44.2374 154.071 44.5578C153.264 44.8782 152.531 45.3613 151.918 45.9771C151.249 46.5196 150.708 47.2045 150.337 47.982C149.965 48.7596 149.772 49.6101 149.77 50.4719C149.765 51.3365 149.956 52.1911 150.328 52.9716C150.7 53.7521 151.244 54.4383 151.918 54.9791C152.535 55.5891 153.268 56.0676 154.075 56.3856C154.882 56.7036 155.745 56.8545 156.612 56.8292C157.478 56.8481 158.339 56.6943 159.145 56.3766C159.951 56.059 160.685 55.5839 161.305 54.9791C161.979 54.4381 162.522 53.7529 162.896 52.9739C163.269 52.1949 163.463 51.342 163.463 50.4781C163.463 49.6142 163.269 48.7615 162.896 47.9825C162.522 47.2035 161.979 46.5181 161.305 45.9771C160.695 45.3547 159.964 44.8641 159.156 44.5352C158.349 44.2063 157.483 44.0463 156.612 44.065V44.1146Z" fill="#24BB9D"/>
<path d="M180.861 38.2541H199.871V44.1644H193.663L193.887 62.628H187.206V44.1644H180.998L180.861 38.2541Z" fill="#24BB9D"/>
<path d="M219.564 54.9172C219.564 55.8112 220.644 56.6927 221.812 56.8542H222.122C223.364 56.8542 224.705 55.9229 224.705 54.9792C224.705 53.3775 222.072 53.1167 219.912 52.4959C216.522 51.4902 213.704 49.0442 213.704 45.6172C213.704 41.4576 217.292 38.1672 222.172 38.1672C224.163 38.0809 226.116 38.7286 227.661 39.9875C229.206 41.2465 230.235 43.0288 230.553 44.9963V45.4805L224.345 46.7221C224.345 45.2197 223.736 44.1395 222.197 44.1395C221.664 44.1082 221.139 44.2847 220.734 44.6321C220.329 44.9795 220.074 45.4706 220.024 46.002C220.024 47.6162 222.507 48.1253 224.568 48.6592C228.045 49.5284 231 51.8876 231 55.4015C231 59.5859 227.039 62.9259 222.184 62.9259C217.727 62.9259 214.014 59.9956 213.43 56.0968L213.356 55.6125L219.564 54.3708V54.9172Z" fill="#24BB9D"/>
<path d="M23.7536 3.9219L24.6475 6.70322C16.2415 8.76438 9.85938 13.3958 5.94813 21.1189C3.10265 26.6897 2.36193 33.0999 3.86207 39.1728C5.28528 45.1594 8.73115 50.4714 13.6176 54.2115C18.504 57.9515 24.5316 59.8903 30.6822 59.7006C36.8327 59.5109 42.7294 57.2042 47.376 53.17C52.0226 49.1359 55.1344 43.6217 56.1859 37.5587C57.3027 30.6654 55.721 23.6067 51.7693 17.8491C47.8176 12.0915 41.7998 8.07763 34.9659 6.64123L35.773 3.95919C45.8429 5.28777 59.762 15.8295 59.675 33.1756C59.9714 41.0791 57.116 48.7765 51.737 54.5746C46.358 60.3728 38.8959 63.7967 30.9924 64.0931C23.089 64.3895 15.3916 61.5341 9.5934 56.1551C3.79525 50.7761 0.371457 43.314 0.0750774 35.4105C-1.12934 17.5305 12.3923 5.74715 23.7536 3.9219ZM30.8312 40.1911C30.7548 39.9848 30.6305 39.7995 30.4686 39.6506C30.3067 39.5016 30.1118 39.3932 29.8999 39.3342C29.6831 39.3685 29.4779 39.4554 29.3026 39.5875C29.1272 39.7196 28.9869 39.8927 28.8941 40.0916C27.4662 45.3563 26.1003 50.6334 24.6848 55.9974C28.0739 56.9375 31.6599 56.8986 35.0278 55.8856C33.6123 50.5216 32.2467 45.3564 30.8312 40.1911ZM52.5726 27.8737C47.37 29.2519 42.1302 30.6177 36.9276 32.0332C36.6048 32.1201 36.1578 32.654 36.1951 32.9272C36.2311 33.1498 36.3196 33.3607 36.4535 33.5421C36.5874 33.7235 36.7628 33.8703 36.9649 33.9703C42.1799 35.3858 47.4073 36.7268 52.734 38.1174C53.7149 35.0505 53.6156 30.0963 52.5726 27.8737ZM10.0704 45.555C11.8449 48.5603 14.3255 51.0877 17.297 52.9181L25.9886 38.1298L24.9208 36.8882L10.0704 45.555ZM22.1766 34.1564C23.3438 33.8708 23.7039 33.3742 23.319 32.1325L6.81724 27.824C6.07164 31.2331 6.12262 34.7685 6.96623 38.1547C12.1316 36.8634 17.0982 35.4354 22.1766 34.1689V34.1564ZM33.6125 37.8814L42.4034 52.7814C45.6318 50.9437 48.5372 47.9389 49.4809 45.5053L34.792 36.8136L33.6125 37.8814ZM42.6146 12.8991L33.7986 27.7991L34.6803 29.227L50.0024 20.1877L42.6146 12.8991ZM24.9455 29.2146L26.0135 27.973L17.3218 13.1971C14.3989 15.0208 11.9314 17.4884 10.1077 20.4113L24.9455 29.2146ZM27.0316 0.0230516C25.6037 0.0230516 25.2312 0.494963 25.6161 1.81113C26.6467 5.33746 27.7144 8.86379 28.8195 12.3653C28.9561 12.775 29.4404 13.073 29.7632 13.4331C30.086 13.0979 30.5951 12.8123 30.7193 12.415C31.8492 8.81417 32.9171 5.17595 34.0222 1.5627C34.3574 0.470039 33.9476 0.010635 32.8549 0.0230516H29.9495C28.9686 0.010635 28.0001 -0.0142105 27.0316 0.0106228V0.0230516ZM24.7097 10.2297C26.1003 15.544 27.491 20.8707 28.9314 26.185C29.0153 26.3643 29.1438 26.5189 29.3047 26.6341C29.4656 26.7494 29.6535 26.8214 29.8502 26.8431C30.0652 26.7852 30.2641 26.679 30.4319 26.5327C30.5997 26.3864 30.7321 26.2038 30.8187 25.9987C31.4768 23.7513 32.0604 21.4667 32.6439 19.1944L34.9907 10.2172L34.5809 9.94395C34.2892 10.1936 34.038 10.4868 33.8359 10.8132C33.4758 11.7072 33.2647 12.6632 32.8922 13.5572C32.6659 14.1842 32.2518 14.7261 31.7063 15.1092C31.1608 15.4922 30.5105 15.6979 29.844 15.6979C29.1774 15.6979 28.5271 15.4922 27.9816 15.1092C27.4361 14.7261 27.022 14.1842 26.7957 13.5572C26.4232 12.6632 26.2122 11.7072 25.8521 10.8132C25.7279 10.478 25.3553 10.2544 25.0945 9.98123L24.7097 10.2297ZM33.7862 33.0762C33.8059 32.2948 33.5926 31.5253 33.1734 30.8657C32.7541 30.206 32.1479 29.6861 31.4321 29.3723C30.7163 29.0584 29.9233 28.9647 29.154 29.1032C28.3848 29.2417 27.6742 29.606 27.1128 30.1498C26.5514 30.6936 26.1647 31.3923 26.0018 32.1568C25.8389 32.9212 25.9073 33.7167 26.1983 34.4421C26.4892 35.1676 26.9895 35.79 27.6354 36.2301C28.2814 36.6701 29.0438 36.9079 29.8253 36.913C30.8568 36.9134 31.8477 36.5114 32.5874 35.7926C33.3271 35.0738 33.7571 34.0948 33.7862 33.0638V33.0762Z" fill="#E03D22"/>
</svg>
